<svg width="32" height="32" viewBox="0 0 32 32" fill="none" xmlns="http://www.w3.org/2000/svg">
<rect width="32" height="32" fill="#6366F1"/>
<path d="M88.5312 44.5156C88.1875 44.7031 87.6562 45 86.9375 45.4062C86.3125 45.75 85.4531 46.25 84.3594 46.9062C83.2969 47.5312 81.9062 48.3438 80.1875 49.3438C80.7188 48.6562 80.9531 48.1719 80.8906 47.8906C80.8594 47.5781 80.7188 47.375 80.4688 47.2812C80.1562 47.1562 79.7344 47.1406 79.2031 47.2344C78.8906 47.2969 78.2188 47.375 77.1875 47.4688C76.1562 47.5312 74.8594 47.5938 73.2969 47.6562C71.7656 47.7188 70.0156 47.7812 68.0469 47.8438C66.0781 47.9062 64 47.9531 61.8125 47.9844C61.6875 53.2031 61.5781 57.875 61.4844 62C61.3906 66.125 61.2969 69.7812 61.2031 72.9688C61.1406 76.1562 61.0781 78.9219 61.0156 81.2656C60.9844 83.6094 60.9531 85.6094 60.9219 87.2656C60.8281 91.1406 60.7812 93.8281 60.7812 95.3281C60.75 96.4844 60.5938 97.625 60.3125 98.75C60.0625 99.7188 59.6875 100.766 59.1875 101.891C58.6875 102.984 57.9688 103.984 57.0312 104.891C57.625 104.953 58.1875 105 58.7188 105.031C59.25 105.031 59.7812 105.031 60.3125 105.031C61.7812 105.031 63.0938 104.969 64.25 104.844C65.4375 104.688 66.4531 104.531 67.2969 104.375C68.1406 104.219 68.8125 104.062 69.3125 103.906C69.8438 103.75 70.1719 103.641 70.2969 103.578C68.6406 104.703 67.2656 105.672 66.1719 106.484C65.0781 107.297 64.0938 107.969 63.2188 108.5C62.3438 109 61.4844 109.375 60.6406 109.625C59.7969 109.875 58.8125 110 57.6875 110C56.1875 110 54.9062 109.938 53.8438 109.812C52.8125 109.688 51.7656 109.625 50.7031 109.625C50.1719 109.625 49.625 109.656 49.0625 109.719C48.5312 109.75 47.9219 109.844 47.2344 110C48.1094 109.25 48.9062 108.438 49.625 107.562C50.375 106.656 51 105.562 51.5 104.281C52 103 52.3906 101.469 52.6719 99.6875C52.9531 97.9062 53.0938 95.75 53.0938 93.2188V48.2656C50.375 48.3281 47.7031 48.3906 45.0781 48.4531C42.4844 48.5156 40.1406 48.5781 38.0469 48.6406C35.9531 48.6719 34.1875 48.7188 32.75 48.7812C31.3438 48.8438 30.4531 48.8906 30.0781 48.9219C29.2031 49.0156 28.5781 48.9844 28.2031 48.8281C27.8281 48.6719 27.6562 48.4375 27.6875 48.125C27.7188 47.7812 27.9531 47.375 28.3906 46.9062C28.7969 46.4375 29.3594 45.9375 30.0781 45.4062L36.5 40.7656C36.0312 41.3281 35.875 41.75 36.0312 42.0312C36.2188 42.3125 36.5 42.5312 36.875 42.6875C37.3125 42.8438 37.8906 42.9375 38.6094 42.9688C39.1094 42.9688 40.125 42.9531 41.6562 42.9219C43.1875 42.8906 45.0469 42.8594 47.2344 42.8281C49.4531 42.7656 51.9062 42.7188 54.5938 42.6875C57.2812 42.625 60.0156 42.5625 62.7969 42.5C65.5781 42.4062 68.3125 42.3281 71 42.2656C73.6875 42.2031 76.125 42.1562 78.3125 42.125C80.5312 42.0625 82.4062 42.0156 83.9375 41.9844C85.4688 41.9219 86.4844 41.875 86.9844 41.8438C87.9531 41.8125 88.6562 41.8906 89.0938 42.0781C89.5312 42.2656 89.7656 42.5156 89.7969 42.8281C89.8594 43.1406 89.75 43.4531 89.4688 43.7656C89.2188 44.0781 88.9062 44.3281 88.5312 44.5156ZM70.2969 103.578V103.531C70.3281 103.5 70.3594 103.484 70.3906 103.484L70.2969 103.578ZM99.6406 104.797C98.6406 105.516 97.6719 106.203 96.7344 106.859C95.8281 107.516 94.9688 108.094 94.1562 108.594C93.375 109.094 92.6719 109.5 92.0469 109.812C91.4219 110.125 90.9219 110.281 90.5469 110.281C90.2344 110.281 89.7969 110.125 89.2344 109.812C88.7656 109.562 88.1562 109.172 87.4062 108.641C86.6562 108.109 85.7188 107.344 84.5938 106.344L91.9062 101.188C93.0938 102.188 94.1562 102.938 95.0938 103.438C96.0312 103.906 96.8438 104.25 97.5312 104.469C98.3438 104.719 99.0469 104.828 99.6406 104.797ZM178.25 104.141L171.828 111.734C167.922 102.016 164.281 92.3438 160.906 82.7188C157.562 73.0938 154.609 63.4062 152.047 53.6562C150.172 58.875 148.281 64.0625 146.375 69.2188C144.5 74.375 142.484 79.4375 140.328 84.4062C138.172 89.3438 135.812 94.1562 133.25 98.8438C130.719 103.5 127.875 107.953 124.719 112.203C122.875 106.766 121.125 101.344 119.469 95.9375C117.812 90.5 116.172 85.0938 114.547 79.7188C112.922 74.3438 111.25 69.0156 109.531 63.7344C107.844 58.4531 106.016 53.2031 104.047 47.9844C103.609 47.9219 103.188 47.8906 102.781 47.8906C102.406 47.8906 102 47.8906 101.562 47.8906C100.688 47.8906 99.8125 47.9219 98.9375 47.9844C98.0938 48.0156 97.3125 48.0781 96.5938 48.1719C98.0625 46.8594 99.3594 45.8594 100.484 45.1719C101.641 44.4844 102.625 43.9688 103.438 43.625C104.375 43.25 105.188 43.0312 105.875 42.9688C106.469 42.9688 107.219 42.9688 108.125 42.9688C109.031 42.9375 109.984 42.9062 110.984 42.875C112.016 42.8438 113.047 42.8125 114.078 42.7812C115.141 42.7188 116.109 42.6719 116.984 42.6406C117.891 42.5781 118.656 42.5312 119.281 42.5C119.938 42.4375 120.375 42.375 120.594 42.3125C119.406 43.0938 118.125 43.9375 116.75 44.8438C115.406 45.75 114.062 46.5156 112.719 47.1406L129.031 100.297C129.781 98.9531 130.531 97.5156 131.281 95.9844C132.031 94.4531 132.766 92.8906 133.484 91.2969C134.234 89.7031 134.953 88.125 135.641 86.5625C136.328 85 136.969 83.5 137.562 82.0625C138.969 78.7188 140.312 75.3594 141.594 71.9844C142.812 68.6406 143.891 65.4375 144.828 62.375C145.234 61.0625 145.625 59.7344 146 58.3906C146.375 57.0156 146.703 55.7031 146.984 54.4531C147.266 53.1719 147.484 51.9844 147.641 50.8906C147.797 49.7656 147.859 48.7969 147.828 47.9844C147.453 47.9219 147.094 47.8906 146.75 47.8906C146.406 47.8906 146.031 47.8906 145.625 47.8906C144.75 47.8906 143.875 47.9219 143 47.9844C142.156 48.0156 141.375 48.0781 140.656 48.1719C142.125 46.8594 143.438 45.8594 144.594 45.1719C145.75 44.4844 146.734 43.9688 147.547 43.625C148.484 43.25 149.312 43.0312 150.031 42.9688C150.594 42.9688 151.312 42.9688 152.188 42.9688C153.094 42.9375 154.047 42.9062 155.047 42.875C156.078 42.8438 157.109 42.8125 158.141 42.7812C159.203 42.7188 160.172 42.6719 161.047 42.6406C161.953 42.5781 162.719 42.5312 163.344 42.5C164 42.4375 164.438 42.375 164.656 42.3125C163.781 42.9375 162.812 43.5938 161.75 44.2812C160.719 44.9688 159.703 45.5938 158.703 46.1562C160.172 51.2188 161.609 56.1406 163.016 60.9219C164.422 65.6719 165.859 70.3281 167.328 74.8906C168.797 79.4219 170.312 83.875 171.875 88.25C173.469 92.5938 175.156 96.875 176.938 101.094C177.75 99.3125 178.547 97.5 179.328 95.6562C180.109 93.8125 180.875 92 181.625 90.2188C182.375 88.4375 183.078 86.7188 183.734 85.0625C184.422 83.375 185.062 81.7969 185.656 80.3281C187.031 76.8594 188.312 73.5312 189.5 70.3438C190.438 67.6562 191.297 65.0312 192.078 62.4688C192.391 61.375 192.703 60.25 193.016 59.0938C193.359 57.9375 193.641 56.7969 193.859 55.6719C194.109 54.5156 194.312 53.4219 194.469 52.3906C194.625 51.3281 194.703 50.375 194.703 49.5312C194.703 49.2188 194.703 48.9531 194.703 48.7344C194.703 48.4844 194.672 48.2344 194.609 47.9844C194.016 47.9844 193.406 47.9688 192.781 47.9375C192.188 47.9062 191.609 47.8906 191.047 47.8906C190.172 47.8906 189.297 47.9219 188.422 47.9844C187.547 48.0156 186.75 48.0781 186.031 48.1719C187.469 46.8594 188.766 45.8594 189.922 45.1719C191.078 44.4844 192.062 43.9688 192.875 43.625C193.812 43.25 194.641 43.0312 195.359 42.9688C195.953 42.9688 196.703 42.9688 197.609 42.9688C198.516 42.9375 199.469 42.9062 200.469 42.875C201.5 42.8438 202.531 42.8125 203.562 42.7812C204.625 42.7188 205.594 42.6719 206.469 42.6406C207.375 42.5781 208.141 42.5312 208.766 42.5C209.391 42.4375 209.812 42.375 210.031 42.3125C209.344 42.7812 208.594 43.2812 207.781 43.8125C206.969 44.3438 206.141 44.8594 205.297 45.3594C204.484 45.8594 203.672 46.3281 202.859 46.7656C202.047 47.1719 201.281 47.5156 200.562 47.7969C197.688 57.7344 194.344 67.3125 190.531 76.5312C186.75 85.7188 182.594 94.7969 178.062 103.766C178.062 103.891 178.125 104.016 178.25 104.141ZM217.391 104.797C216.391 105.516 215.422 106.203 214.484 106.859C213.578 107.516 212.719 108.094 211.906 108.594C211.125 109.094 210.422 109.5 209.797 109.812C209.172 110.125 208.672 110.281 208.297 110.281C207.984 110.281 207.547 110.125 206.984 109.812C206.516 109.562 205.906 109.172 205.156 108.641C204.406 108.109 203.469 107.344 202.344 106.344L209.656 101.188C210.844 102.188 211.906 102.938 212.844 103.438C213.781 103.906 214.594 104.25 215.281 104.469C216.094 104.719 216.797 104.828 217.391 104.797Z" fill="white"/>
<path d="M58.7031 197.125C57.0469 198.062 55.4531 198.844 53.9219 199.469C52.4219 200.094 51.0156 200.594 49.7031 200.969C48.3906 201.344 47.2031 201.609 46.1406 201.766C45.1094 201.922 44.2188 202 43.4688 202H36.4375L41.5469 199.141C42.0781 198.453 42.5938 197.766 43.0938 197.078C43.5938 196.391 44.0156 195.75 44.3594 195.156C44.7656 194.5 45.1406 193.844 45.4844 193.188C46.4531 191.219 47.8906 188.031 49.7969 183.625C50.5781 181.75 51.5 179.516 52.5625 176.922C53.6562 174.328 54.9062 171.312 56.3125 167.875C57.7188 164.438 59.2812 160.531 61 156.156C62.7188 151.781 64.6406 146.875 66.7656 141.438L74.9219 133.938L93.2969 196.234C94.6094 196.578 95.8594 196.797 97.0469 196.891C98.2656 196.984 99.4062 197.031 100.469 197.031C101.031 197.031 101.547 197.031 102.016 197.031C102.484 197 102.891 196.969 103.234 196.938C103.609 196.906 103.969 196.859 104.312 196.797C102.5 197.672 100.922 198.438 99.5781 199.094C98.2344 199.719 97.0312 200.25 95.9688 200.688C94.9375 201.125 93.9688 201.453 93.0625 201.672C92.1875 201.891 91.2969 202 90.3906 202H82.8906L85.3281 200.453L77.8281 175.609C76.9219 175.859 75.875 176.109 74.6875 176.359C73.5 176.578 72.0781 176.781 70.4219 176.969C68.7969 177.156 66.8906 177.328 64.7031 177.484C62.5469 177.641 60.0469 177.781 57.2031 177.906C55.8906 180.688 54.6875 183.156 53.5938 185.312C52.5 187.469 51.5156 189.344 50.6406 190.938C49.7656 192.531 48.9844 193.875 48.2969 194.969C47.6406 196.062 47.0781 196.938 46.6094 197.594C47.1406 197.688 47.7344 197.766 48.3906 197.828C49.0469 197.859 49.7031 197.875 50.3594 197.875C51.3594 197.875 52.3438 197.844 53.3125 197.781C54.3125 197.688 55.2188 197.594 56.0312 197.5C56.9688 197.375 57.8594 197.25 58.7031 197.125ZM65.2656 172.328C69.4844 172.328 73.3125 172.234 76.75 172.047L69.5781 148.234C67.6406 153.203 65.8594 157.641 64.2344 161.547C62.6406 165.453 61.125 169.047 59.6875 172.328H65.2656ZM121.891 196.797C120.891 197.516 119.922 198.203 118.984 198.859C118.078 199.516 117.219 200.094 116.406 200.594C115.625 201.094 114.922 201.5 114.297 201.812C113.672 202.125 113.172 202.281 112.797 202.281C112.484 202.281 112.047 202.125 111.484 201.812C111.016 201.562 110.406 201.172 109.656 200.641C108.906 200.109 107.969 199.344 106.844 198.344L114.156 193.188C115.344 194.188 116.406 194.938 117.344 195.438C118.281 195.906 119.094 196.25 119.781 196.469C120.594 196.719 121.297 196.828 121.891 196.797ZM179.031 136.516C178.688 136.703 178.156 137 177.438 137.406C176.812 137.75 175.953 138.25 174.859 138.906C173.797 139.531 172.406 140.344 170.688 141.344C171.219 140.656 171.453 140.172 171.391 139.891C171.359 139.578 171.219 139.375 170.969 139.281C170.656 139.156 170.234 139.141 169.703 139.234C169.391 139.297 168.719 139.375 167.688 139.469C166.656 139.531 165.359 139.594 163.797 139.656C162.266 139.719 160.516 139.781 158.547 139.844C156.578 139.906 154.5 139.953 152.312 139.984C152.188 145.203 152.078 149.875 151.984 154C151.891 158.125 151.797 161.781 151.703 164.969C151.641 168.156 151.578 170.922 151.516 173.266C151.484 175.609 151.453 177.609 151.422 179.266C151.328 183.141 151.281 185.828 151.281 187.328C151.25 188.484 151.094 189.625 150.812 190.75C150.562 191.719 150.188 192.766 149.688 193.891C149.188 194.984 148.469 195.984 147.531 196.891C148.125 196.953 148.688 197 149.219 197.031C149.75 197.031 150.281 197.031 150.812 197.031C152.281 197.031 153.594 196.969 154.75 196.844C155.938 196.688 156.953 196.531 157.797 196.375C158.641 196.219 159.312 196.062 159.812 195.906C160.344 195.75 160.672 195.641 160.797 195.578C159.141 196.703 157.766 197.672 156.672 198.484C155.578 199.297 154.594 199.969 153.719 200.5C152.844 201 151.984 201.375 151.141 201.625C150.297 201.875 149.312 202 148.188 202C146.688 202 145.406 201.938 144.344 201.812C143.312 201.688 142.266 201.625 141.203 201.625C140.672 201.625 140.125 201.656 139.562 201.719C139.031 201.75 138.422 201.844 137.734 202C138.609 201.25 139.406 200.438 140.125 199.562C140.875 198.656 141.5 197.562 142 196.281C142.5 195 142.891 193.469 143.172 191.688C143.453 189.906 143.594 187.75 143.594 185.219V140.266C140.875 140.328 138.203 140.391 135.578 140.453C132.984 140.516 130.641 140.578 128.547 140.641C126.453 140.672 124.688 140.719 123.25 140.781C121.844 140.844 120.953 140.891 120.578 140.922C119.703 141.016 119.078 140.984 118.703 140.828C118.328 140.672 118.156 140.438 118.188 140.125C118.219 139.781 118.453 139.375 118.891 138.906C119.297 138.438 119.859 137.938 120.578 137.406L127 132.766C126.531 133.328 126.375 133.75 126.531 134.031C126.719 134.312 127 134.531 127.375 134.688C127.812 134.844 128.391 134.938 129.109 134.969C129.609 134.969 130.625 134.953 132.156 134.922C133.688 134.891 135.547 134.859 137.734 134.828C139.953 134.766 142.406 134.719 145.094 134.688C147.781 134.625 150.516 134.562 153.297 134.5C156.078 134.406 158.812 134.328 161.5 134.266C164.188 134.203 166.625 134.156 168.812 134.125C171.031 134.062 172.906 134.016 174.438 133.984C175.969 133.922 176.984 133.875 177.484 133.844C178.453 133.812 179.156 133.891 179.594 134.078C180.031 134.266 180.266 134.516 180.297 134.828C180.359 135.141 180.25 135.453 179.969 135.766C179.719 136.078 179.406 136.328 179.031 136.516ZM160.797 195.578V195.531C160.828 195.5 160.859 195.484 160.891 195.484L160.797 195.578ZM190.141 196.797C189.141 197.516 188.172 198.203 187.234 198.859C186.328 199.516 185.469 200.094 184.656 200.594C183.875 201.094 183.172 201.5 182.547 201.812C181.922 202.125 181.422 202.281 181.047 202.281C180.734 202.281 180.297 202.125 179.734 201.812C179.266 201.562 178.656 201.172 177.906 200.641C177.156 200.109 176.219 199.344 175.094 198.344L182.406 193.188C183.594 194.188 184.656 194.938 185.594 195.438C186.531 195.906 187.344 196.25 188.031 196.469C188.844 196.719 189.547 196.828 190.141 196.797Z" fill="white"/>
</svg>
